<?xml version="1.0" standalone="no"?>
<!DOCTYPE svg PUBLIC "-//W3C//DTD SVG 20010904//EN"
 "http://www.w3.org/TR/2001/REC-SVG-20010904/DTD/svg10.dtd">
<svg version="1.0" xmlns="http://www.w3.org/2000/svg"
 width="150.000000pt" height="153.000000pt" viewBox="0 0 150.000000 153.000000"
 preserveAspectRatio="xMidYMid meet">
<metadata>
Created by potrace 1.10, written by Peter Selinger 2001-2011
</metadata>
<g transform="translate(0.000000,153.000000) scale(0.100000,-0.100000)"
fill="#ffffff" stroke="none">
<path d="M950 1374 c-30 -8 -165 -44 -300 -80 l-245 -66 -98 -252 c-53 -138
-100 -265 -103 -282 -5 -29 5 -46 116 -189 67 -86 154 -194 194 -239 l71 -82
80 13 c116 19 434 81 477 93 31 9 41 19 59 58 40 89 189 455 195 478 5 19 -21
61 -132 216 -124 173 -254 349 -258 347 0 0 -26 -7 -56 -15z m78 -97 c18 -34
61 -116 95 -182 34 -66 72 -128 85 -139 28 -22 25 -49 -5 -51 -14 -1 -19 3
-16 12 3 7 0 26 -6 41 -11 25 -30 34 -224 97 -117 38 -235 78 -264 90 l-52 21
172 86 c95 48 174 87 177 87 3 1 20 -27 38 -62z m-234 12 c-13 -22 -187 -99
-223 -99 -43 0 -74 16 -51 25 11 4 208 64 278 84 2 1 0 -4 -4 -10z m-303 -120
c19 -7 38 -15 42 -19 5 -4 -48 -81 -117 -171 -69 -89 -127 -167 -129 -173 -3
-6 -8 -7 -13 -2 -5 5 -4 10 3 13 6 2 44 85 83 184 40 98 78 179 85 179 6 0 27
-5 46 -11z m117 -19 c-40 -24 -30 -80 83 -470 10 -35 16 -66 14 -69 -3 -2
-107 16 -233 39 l-228 44 80 101 c169 211 251 316 251 323 0 4 4 13 9 21 7 11
5 13 -8 8 -10 -4 -15 -3 -11 3 3 6 18 10 33 10 22 -1 24 -2 10 -10z m295 -118
l276 -94 -202 -155 c-111 -85 -207 -157 -214 -160 -7 -3 -17 15 -27 49 -27 94
-64 230 -91 330 -14 53 -28 105 -32 114 -3 9 -2 15 3 13 6 -2 134 -46 287 -97z
m331 -10 c32 -46 56 -86 53 -88 -8 -8 -33 7 -47 29 -51 81 -80 133 -80 146 0
19 4 15 74 -87z m116 -194 c0 -3 -24 -68 -53 -145 -30 -76 -62 -160 -71 -186
-10 -27 -22 -45 -26 -40 -4 4 0 80 10 168 10 88 20 185 21 215 1 30 4 58 6 63
5 8 113 -63 113 -75z m-164 -30 c-11 -155 -38 -443 -41 -447 -2 -2 -16 6 -32
17 -15 11 -99 62 -186 115 -86 52 -151 97 -145 100 7 3 100 73 207 156 107 83
197 151 199 151 2 0 1 -42 -2 -92z m-706 -194 c96 -20 187 -40 202 -43 l26 -6
-33 -80 c-80 -192 -105 -249 -105 -238 0 13 -139 201 -239 323 -64 79 -72 95
-43 86 9 -3 96 -22 192 -42z m281 -4 c13 0 -1 -28 -18 -34 -24 -9 -45 12 -30
30 7 7 18 11 25 9 8 -3 18 -5 23 -5z m51 -96 c34 -20 68 -39 73 -44 6 -5 59
-38 119 -74 60 -36 103 -67 95 -70 -8 -2 -88 -16 -179 -31 -91 -15 -194 -33
-230 -41 -35 -7 -66 -11 -68 -9 -2 2 21 60 52 130 31 69 59 137 62 150 3 14 7
25 9 25 2 0 32 -16 67 -36z"/>
</g>
</svg>
