<?xml version="1.0" standalone="no"?>
<!DOCTYPE svg PUBLIC "-//W3C//DTD SVG 20010904//EN"
 "http://www.w3.org/TR/2001/REC-SVG-20010904/DTD/svg10.dtd">
<svg version="1.0" xmlns="http://www.w3.org/2000/svg"
 width="737.000000pt" height="205.000000pt" viewBox="0 0 737.000000 205.000000"
 preserveAspectRatio="xMidYMid meet">
<metadata>
Created by potrace 1.10, written by Peter Selinger 2001-2011
</metadata>
<g transform="translate(0.000000,205.000000) scale(0.100000,-0.100000)"
fill="#5900ff" stroke="none">
<path d="M3207 1954 c-8 -8 1 -24 14 -24 5 0 9 7 9 15 0 15 -12 20 -23 9z"/>
<path d="M470 1862 l-245 -68 -92 -233 c-78 -195 -91 -236 -80 -250 87 -123
314 -401 326 -401 36 1 494 89 501 97 5 4 50 110 100 234 l91 226 -161 229
c-92 132 -168 230 -178 231 -9 1 -127 -28 -262 -65z m332 -122 c40 -80 74
-147 76 -150 1 -3 -99 28 -223 70 -124 41 -225 77 -225 80 0 6 283 148 292
146 3 0 39 -66 80 -146z m-331 61 c-85 -43 -98 -47 -128 -38 -18 6 -31 13 -28
16 7 6 215 68 235 69 8 1 -27 -21 -79 -47z m-131 -76 c0 -2 -47 -65 -105 -140
-58 -75 -105 -133 -105 -129 0 5 24 67 54 139 29 71 56 138 59 147 6 16 9 16
52 2 25 -9 45 -17 45 -19z m312 -100 l227 -76 -87 -66 c-48 -37 -129 -100
-180 -140 -58 -46 -94 -69 -96 -61 -2 7 -28 101 -56 208 -29 107 -55 201 -58
209 -3 9 0 12 9 8 8 -3 116 -40 241 -82z m245 33 c15 -24 40 -60 56 -80 30
-39 29 -45 -4 -28 -17 10 -96 150 -84 150 2 0 17 -19 32 -42z m-472 -177 c30
-112 55 -206 55 -210 0 -4 -88 11 -195 33 l-194 39 41 51 c22 28 83 106 135
174 53 68 97 121 99 119 2 -2 29 -95 59 -206z m558 8 l44 -31 -58 -146 c-32
-81 -59 -153 -59 -159 0 -7 -5 -13 -11 -13 -6 0 -8 8 -5 18 4 13 36 324 36
355 0 12 7 9 53 -24z m-109 -211 c-10 -122 -19 -225 -20 -227 -2 -2 -73 41
-158 94 l-155 97 137 105 c75 59 152 119 171 134 19 16 37 27 39 25 2 -2 -4
-105 -14 -228z m-576 -14 c97 -20 179 -38 181 -40 2 -2 -15 -45 -37 -96 -23
-51 -48 -110 -57 -131 l-16 -39 -31 44 c-18 23 -73 95 -123 158 -98 123 -110
140 -100 140 3 0 86 -16 183 -36z m374 -146 l149 -92 -203 -38 c-112 -21 -206
-38 -209 -38 -4 0 17 54 47 121 30 66 54 124 54 130 0 5 3 9 6 9 4 0 74 -41
156 -92z"/>
<path d="M1989 1623 c-11 -12 -14 -59 -14 -204 0 -162 2 -191 17 -205 21 -21
64 -12 73 15 5 18 7 18 31 -6 31 -31 78 -26 112 13 19 22 22 36 22 115 0 130
-24 167 -106 157 -18 -2 -33 -12 -41 -28 -11 -22 -13 -17 -13 48 0 40 -5 82
-10 93 -13 23 -53 25 -71 2z m54 -195 c-15 -32 -17 -96 -4 -132 7 -18 6 -27
-3 -35 -10 -9 -15 -8 -18 1 -4 11 -4 120 1 233 l1 30 18 -35 c16 -30 16 -39 5
-62z m137 12 c6 -11 7 -20 3 -20 -5 0 -14 9 -21 20 -7 11 -8 20 -2 20 5 0 14
-9 20 -20z m-42 -73 c4 -87 -16 -118 -52 -81 -10 10 -16 33 -16 65 0 63 14 91
43 87 20 -3 22 -10 25 -71z"/>
<path d="M2311 1621 c-17 -30 -15 -382 2 -405 17 -23 58 -17 72 10 l11 22 21
-24 c25 -27 52 -30 92 -9 41 21 54 61 50 159 -4 73 -7 88 -28 110 -35 37 -91
36 -120 -1 l-22 -28 6 65 c7 78 -7 113 -47 118 -18 2 -30 -3 -37 -17z m56
-142 c9 -23 9 -37 2 -51 -12 -22 -14 -92 -4 -137 3 -17 2 -32 -4 -36 -6 -3
-12 -3 -12 2 -6 29 -5 253 0 253 4 0 12 -14 18 -31z m148 -78 c1 -18 1 -30 -2
-27 -3 2 -4 7 -4 10 1 3 -6 23 -14 44 -15 34 -15 36 1 21 9 -10 17 -31 19 -48z
m-55 -41 c0 -63 -3 -82 -15 -86 -30 -12 -45 15 -45 80 0 64 11 86 42 86 16 0
18 -10 18 -80z m46 -85 c-10 -15 -21 -23 -24 -19 -4 3 -1 9 6 11 6 3 12 16 12
31 0 20 3 23 11 15 9 -9 8 -18 -5 -38z"/>
<path d="M2980 1621 c-6 -12 -10 -96 -10 -205 0 -157 2 -187 16 -201 22 -22
56 -15 72 15 18 36 13 370 -7 393 -18 23 -58 21 -71 -2z"/>
<path d="M3309 1619 c-6 -13 -9 -50 -7 -89 l4 -68 -23 24 c-31 34 -86 33 -118
-2 -23 -25 -25 -35 -25 -126 0 -97 1 -100 29 -129 36 -36 73 -37 107 -4 30 30
34 31 34 5 0 -24 44 -38 65 -20 12 10 15 47 15 209 0 140 -3 200 -12 209 -19
19 -56 14 -69 -9z m45 -162 c3 -21 2 -47 -2 -58 -7 -17 -9 -15 -21 17 -11 30
-11 41 0 60 15 29 17 28 23 -19z m-149 -14 c-5 -10 -11 -38 -15 -63 l-7 -45
-2 43 c0 24 4 52 9 63 13 24 25 25 15 2z m85 -22 c16 -31 12 -117 -6 -135 -19
-19 -26 -20 -42 -4 -13 13 -17 140 -5 151 13 14 43 7 53 -12z m55 -159 c-5
-13 -8 -14 -14 -3 -5 7 -3 27 3 43 l11 31 3 -28 c2 -14 1 -34 -3 -43z m-135
-6 c0 -19 -24 14 -27 36 -3 22 -2 22 12 -2 8 -14 14 -29 15 -34z"/>
<path d="M3492 1628 c-7 -7 -12 -25 -12 -40 0 -54 82 -57 88 -4 2 15 -2 34 -9
42 -14 17 -51 18 -67 2z"/>
<path d="M3686 1624 c-13 -13 -16 -43 -16 -172 0 -140 2 -161 20 -190 27 -44
80 -65 148 -60 43 4 59 11 85 37 l32 31 3 165 c4 181 -2 205 -46 205 -49 0
-52 -12 -52 -181 0 -130 -3 -160 -16 -173 -21 -22 -40 -20 -58 6 -13 18 -16
53 -16 173 0 104 -4 155 -12 163 -17 17 -54 15 -72 -4z m46 -191 c2 -99 7
-145 17 -159 7 -10 2 -7 -12 8 -24 25 -25 33 -26 153 -2 112 3 154 15 143 2
-3 5 -67 6 -145z m187 22 c1 -125 -13 -195 -39 -195 -6 0 -5 9 4 23 10 16 15
58 16 151 1 116 4 146 14 146 2 0 4 -56 5 -125z"/>
<path d="M1211 1509 c-21 -8 -23 -14 -18 -47 2 -20 24 -86 48 -147 42 -106 45
-110 74 -110 29 0 31 4 55 78 14 42 28 77 31 77 4 0 10 -17 14 -37 3 -21 15
-57 26 -81 16 -38 22 -43 46 -40 26 3 31 13 76 131 52 134 55 170 16 180 -32
8 -54 -22 -74 -102 -10 -40 -21 -69 -25 -64 -4 4 -15 32 -25 61 -15 48 -37 72
-64 72 -17 0 -49 -59 -56 -102 -8 -45 -20 -49 -28 -10 -10 49 -47 140 -60 145
-7 2 -23 0 -36 -4z m199 -104 c10 -13 9 -15 -8 -15 -15 0 -20 5 -16 15 4 8 7
15 9 15 1 0 8 -7 15 -15z m-88 -85 c19 0 22 -8 12 -34 -9 -24 -33 -19 -44 10
-14 36 -13 51 2 36 7 -7 20 -12 30 -12z m187 -20 c-12 -32 -33 -40 -43 -14
-10 25 -7 32 12 37 39 10 41 8 31 -23z"/>
<path d="M2651 1504 c-19 -14 -21 -24 -21 -129 0 -104 2 -116 23 -139 12 -15
36 -29 54 -32 26 -5 37 -1 58 20 31 31 35 32 35 7 0 -22 30 -35 59 -26 26 8
31 33 31 163 0 98 -2 114 -20 132 -21 21 -46 18 -67 -8 -8 -10 -13 -47 -13
-98 0 -65 -4 -86 -19 -105 -16 -20 -21 -21 -35 -10 -13 11 -16 33 -16 110 0
53 -4 101 -8 107 -13 19 -39 23 -61 8z m26 -146 c-2 -13 -4 -5 -4 17 -1 22 1
32 4 23 2 -10 2 -28 0 -40z m169 -33 c3 -65 -2 -80 -24 -66 -8 5 -8 18 1 51 7
25 12 55 11 68 -1 12 1 20 4 17 3 -3 7 -34 8 -70z m-149 -55 c11 -16 10 -18
-1 -14 -15 6 -30 34 -18 34 4 0 13 -9 19 -20z"/>
<path d="M1680 1482 c-29 -29 -30 -34 -30 -120 0 -75 3 -93 21 -115 46 -60
197 -58 229 3 5 10 7 26 4 34 -9 23 -67 21 -89 -4 -10 -11 -24 -20 -31 -20
-21 0 -44 30 -44 56 0 23 2 24 73 24 94 0 101 5 95 70 -8 76 -29 94 -123 98
-72 4 -75 3 -105 -26z m128 -44 c7 -7 12 -21 12 -33 0 -17 -6 -20 -40 -20 -34
0 -40 3 -40 20 0 25 18 45 40 45 9 0 21 -5 28 -12z m-93 -58 c8 -13 -4 -50
-16 -50 -5 0 -9 14 -9 30 0 30 13 40 25 20z"/>
<path d="M3492 1498 c-17 -17 -17 -269 0 -286 7 -7 21 -12 33 -12 40 0 45 18
45 151 0 70 -3 134 -6 143 -7 19 -55 21 -72 4z"/>
<path d="M4057 1504 c-4 -4 -7 -69 -7 -144 0 -140 5 -160 41 -160 37 0 49 28
49 110 0 85 12 110 53 110 41 0 53 19 49 73 -2 14 -9 18 -34 15 -27 -2 -37
-10 -53 -43 l-20 -40 -5 40 c-4 36 -8 40 -35 43 -17 2 -34 0 -38 -4z m56 -77
c3 -7 -1 -24 -9 -38 -13 -24 -13 -23 -14 14 0 36 13 50 23 24z"/>
<path d="M3632 929 c2 -6 8 -10 13 -10 5 0 11 4 13 10 2 6 -4 11 -13 11 -9 0
-15 -5 -13 -11z"/>
<path d="M1346 853 c-11 -11 -6 -23 9 -23 8 0 15 4 15 9 0 13 -16 22 -24 14z"/>
</g>
</svg>
