<?xml version="1.0" standalone="no"?>
<!DOCTYPE svg PUBLIC "-//W3C//DTD SVG 20010904//EN"
 "http://www.w3.org/TR/2001/REC-SVG-20010904/DTD/svg10.dtd">
<svg version="1.0" xmlns="http://www.w3.org/2000/svg"
 width="300.000000pt" height="83.000000pt" viewBox="0 0 300.000000 83.000000"
 preserveAspectRatio="xMidYMid meet">
<metadata>
Created by potrace 1.10, written by Peter Selinger 2001-2011
</metadata>
<g transform="translate(0.000000,83.000000) scale(0.100000,-0.100000)"
fill="#ffffff" stroke="none">
<path d="M2040 825 c0 -6 16 -32 35 -59 19 -27 35 -46 35 -42 0 4 -16 30 -35
59 -19 28 -35 47 -35 42z"/>
<path d="M2159 811 c13 -12 29 -21 36 -21 17 0 64 39 48 40 -7 0 -13 -4 -13
-9 0 -19 -41 -23 -68 -6 l-27 16 24 -20z"/>
<path d="M312 705 c-84 -23 -157 -46 -161 -51 -15 -17 -122 -297 -118 -308 5
-11 176 -236 201 -264 9 -9 45 -6 176 18 90 16 167 30 171 30 6 0 129 297 129
312 0 4 -48 75 -106 158 -67 95 -112 150 -123 149 -9 -1 -85 -20 -169 -44z
m225 -86 c28 -55 46 -98 40 -95 -7 2 -76 26 -154 52 l-143 47 98 48 c53 26 99
48 102 48 3 0 28 -45 57 -100z m-234 42 c-31 -17 -61 -27 -73 -24 -33 9 -23
17 43 34 87 23 89 22 30 -10z m-91 -39 c13 -6 5 -22 -50 -94 -37 -48 -68 -86
-69 -84 -1 1 14 44 34 94 37 92 45 100 85 84z m226 -76 c78 -26 142 -49 142
-50 0 -6 -231 -179 -234 -175 -1 2 -18 58 -36 124 -18 66 -35 129 -38 139 -4
14 -1 18 9 14 8 -3 78 -26 157 -52z m-121 -232 c-2 -2 -59 7 -127 21 -67 14
-124 25 -126 25 -2 0 37 52 88 116 l92 116 38 -137 c21 -76 37 -139 35 -141z
m327 189 c5 -9 2 -11 -9 -7 -14 6 -55 72 -55 90 0 6 45 -53 64 -83z m36 -71
c0 -4 -18 -52 -41 -107 l-40 -100 5 60 c3 33 8 90 12 127 l6 68 29 -21 c16
-11 29 -23 29 -27z m-91 -39 c-4 -43 -11 -112 -14 -155 l-7 -76 -56 37 c-31
21 -79 51 -106 66 -47 28 -48 29 -28 43 11 7 63 47 114 87 51 40 95 74 99 74
3 1 2 -34 -2 -76z m-367 -90 c54 -10 98 -21 98 -24 0 -4 -17 -43 -37 -88 l-38
-81 -88 111 c-80 101 -85 111 -60 106 15 -3 72 -14 125 -24z m223 -90 c52 -32
91 -61 87 -64 -4 -3 -55 -13 -114 -23 -58 -10 -116 -20 -127 -23 -20 -5 -19 0
14 77 19 45 35 84 35 86 0 9 16 1 105 -53z"/>
<path d="M1857 692 c-22 -24 -22 -56 1 -73 14 -11 15 -11 5 1 -18 19 -16 55 2
70 9 8 28 10 48 6 23 -4 28 -3 17 4 -23 15 -55 12 -73 -8z"/>
<path d="M1770 632 c0 -4 9 -8 20 -9 11 -1 18 2 15 8 -7 11 -35 12 -35 1z"/>
<path d="M1327 553 c-4 -3 -7 -69 -7 -145 l0 -138 25 0 c14 0 28 7 32 16 5 15
7 15 15 0 5 -9 22 -16 38 -16 41 0 60 32 60 100 0 68 -19 100 -60 100 -17 0
-33 -7 -39 -17 -8 -14 -10 -7 -11 33 0 49 -12 74 -35 74 -7 0 -15 -3 -18 -7z
m97 -139 c11 -28 6 -81 -7 -93 -20 -16 -37 6 -37 49 0 49 30 80 44 44z"/>
<path d="M1540 541 c-11 -21 -14 -229 -4 -255 8 -22 54 -21 54 1 0 15 2 15 19
-1 27 -25 72 -17 88 14 7 14 13 45 13 70 0 25 -6 56 -13 70 -16 31 -61 39 -88
14 -19 -17 -19 -16 -13 29 5 31 3 52 -6 62 -17 21 -37 19 -50 -4z m100 -170
c0 -52 -5 -62 -26 -54 -18 7 -19 99 -1 106 21 8 27 -3 27 -52z"/>
<path d="M1991 547 c-8 -10 -11 -55 -9 -143 l3 -129 28 -3 28 -3 -3 143 c-3
121 -5 143 -19 146 -9 1 -21 -4 -28 -11z"/>
<path d="M2212 548 c-6 -6 -12 -32 -12 -57 0 -35 -3 -42 -12 -33 -7 7 -24 12
-39 12 -40 0 -59 -33 -59 -100 0 -67 19 -100 59 -100 15 0 32 5 38 11 8 8 13
8 17 0 4 -6 18 -11 32 -11 l25 0 -3 142 c-3 118 -6 143 -18 146 -9 1 -21 -3
-28 -10z m-24 -130 c16 -16 15 -83 -1 -97 -19 -15 -37 6 -37 45 0 57 14 76 38
52z"/>
<path d="M2327 554 c-13 -13 -7 -52 8 -58 27 -10 46 5 43 33 -3 26 -35 41 -51
25z"/>
<path d="M2457 553 c-4 -3 -7 -59 -7 -123 0 -109 2 -118 23 -138 18 -17 36
-22 74 -22 44 0 55 4 72 26 18 23 21 41 21 134 0 86 -3 110 -16 121 -11 9 -20
10 -32 2 -14 -8 -18 -32 -22 -124 -5 -106 -6 -114 -25 -114 -18 0 -20 8 -25
110 -3 61 -9 116 -13 123 -9 13 -39 16 -50 5z"/>
<path d="M800 465 c-10 -12 -8 -29 15 -93 32 -89 41 -102 66 -102 14 0 23 14
35 58 l17 57 13 -49 c25 -95 55 -90 95 14 32 85 35 115 14 124 -21 8 -42 -17
-50 -61 -11 -58 -17 -60 -34 -12 -12 31 -23 45 -39 47 -18 3 -24 -4 -34 -42
-7 -25 -15 -46 -18 -46 -3 0 -12 21 -18 47 -19 70 -38 87 -62 58z"/>
<path d="M1767 468 c-23 -13 -24 -143 -1 -176 17 -25 62 -30 83 -9 11 10 14
10 18 0 3 -7 16 -13 29 -13 27 0 26 -3 26 114 0 83 -10 103 -44 85 -14 -8 -18
-22 -18 -72 0 -67 -14 -95 -37 -76 -8 8 -13 35 -13 79 0 71 -10 87 -43 68z"/>
<path d="M1116 448 c-24 -34 -21 -133 4 -158 38 -38 150 -21 150 24 0 19 -32
21 -59 4 -24 -15 -51 -4 -51 22 0 18 6 20 55 20 l55 0 0 38 c0 53 -23 72 -88
72 -41 0 -54 -4 -66 -22z m97 -38 c4 -17 0 -20 -24 -20 -17 0 -29 5 -29 13 0
32 45 38 53 7z"/>
<path d="M2325 457 c-3 -7 -5 -52 -3 -98 3 -82 4 -84 28 -84 25 0 25 0 25 95
0 91 -1 95 -23 98 -12 2 -24 -3 -27 -11z"/>
<path d="M2704 457 c-3 -8 -4 -52 -2 -98 3 -82 4 -84 28 -84 24 0 25 4 30 65
5 63 6 65 35 70 24 4 31 11 33 33 3 23 0 27 -23 27 -18 0 -29 -8 -37 -27 l-12
-28 -4 28 c-2 19 -9 27 -23 27 -11 0 -22 -6 -25 -13z"/>
</g>
</svg>
